<svg width="104" height="105" viewBox="0 0 104 105" fill="none" xmlns="http://www.w3.org/2000/svg"><path d="M91 37.483c0 44.417-39 57.85-39 57.85S13 81.9 13 37.483c0-5.416.433-9.966.867-13.65.65-5.416 4.333-9.75 9.533-11.05 6.717-1.95 17.333-4.116 28.6-4.116 11.267 0 21.883 2.166 28.817 4.116 5.2 1.3 8.883 5.85 9.533 11.05.217 3.684.65 8.45.65 13.65z" fill="#5D4037"/><path d="M52 15.167c10.617 0 20.583 2.166 27.083 3.9 2.6.65 4.334 2.816 4.767 5.633.433 4.117.65 8.45.65 12.783 0 33.8-24.917 47.45-32.5 50.7-7.583-3.466-32.5-17.116-32.5-50.7 0-4.333.217-8.666.65-12.783.217-2.817 2.167-4.983 4.767-5.633 6.5-1.734 16.466-3.9 27.083-3.9zm0-6.5c-11.267 0-21.883 2.166-28.817 4.116-4.983 1.3-8.883 5.85-9.316 11.05-.434 3.684-.867 8.45-.867 13.65 0 44.417 39 57.85 39 57.85S91 81.9 91 37.483c0-5.416-.433-9.966-.867-13.65-.65-5.416-4.333-9.75-9.533-11.05-6.717-1.95-17.333-4.116-28.6-4.116z" fill="#4CAF50"/><path d="M49.833 60.667h4.334V78h-4.334V60.667z" fill="#DCEDC8"/><path d="M52 21.667S39 32.5 39 49.833C39 61.1 46.15 68.25 49.833 71.5L52 65l2.167 6.5C57.85 68.25 65 61.1 65 49.833 65 32.5 52 21.667 52 21.667z" fill="#4CAF50"/><path d="M52 21.667S39 32.5 39 49.833C39 61.1 46.15 68.25 49.833 71.5L52 65V21.667z" fill="#81C784"/></svg>